<mxfile host="Electron" modified="2024-01-21T23:04:53.086Z" agent="Mozilla/5.0 (Windows NT 10.0; Win64; x64) AppleWebKit/537.36 (KHTML, like Gecko) draw.io/22.1.16 Chrome/120.0.6099.109 Electron/28.1.0 Safari/537.36" etag="jDud1LhqDK1DCUmcXjGA" version="22.1.16" type="device">
  <diagram name="Page-1" id="t9s0khgvKqPiw3qtJ-Ou">
    <mxGraphModel dx="761" dy="684" grid="1" gridSize="10" guides="1" tooltips="1" connect="1" arrows="1" fold="1" page="1" pageScale="1" pageWidth="850" pageHeight="1100" math="0" shadow="0">
      <root>
        <mxCell id="0" />
        <mxCell id="1" parent="0" />
        <mxCell id="t-jumT_8L7kQ6bsO_YsJ-19" style="edgeStyle=orthogonalEdgeStyle;rounded=0;orthogonalLoop=1;jettySize=auto;html=1;exitX=0.75;exitY=1;exitDx=0;exitDy=0;" edge="1" parent="1" source="t-jumT_8L7kQ6bsO_YsJ-1" target="t-jumT_8L7kQ6bsO_YsJ-18">
          <mxGeometry relative="1" as="geometry" />
        </mxCell>
        <mxCell id="t-jumT_8L7kQ6bsO_YsJ-20" style="edgeStyle=orthogonalEdgeStyle;rounded=0;orthogonalLoop=1;jettySize=auto;html=1;exitX=0.25;exitY=1;exitDx=0;exitDy=0;entryX=0.5;entryY=0;entryDx=0;entryDy=0;" edge="1" parent="1" source="t-jumT_8L7kQ6bsO_YsJ-1" target="t-jumT_8L7kQ6bsO_YsJ-17">
          <mxGeometry relative="1" as="geometry" />
        </mxCell>
        <mxCell id="t-jumT_8L7kQ6bsO_YsJ-27" style="edgeStyle=orthogonalEdgeStyle;rounded=0;orthogonalLoop=1;jettySize=auto;html=1;exitX=1;exitY=0.75;exitDx=0;exitDy=0;entryX=0.25;entryY=0;entryDx=0;entryDy=0;" edge="1" parent="1" source="t-jumT_8L7kQ6bsO_YsJ-1" target="t-jumT_8L7kQ6bsO_YsJ-26">
          <mxGeometry relative="1" as="geometry" />
        </mxCell>
        <mxCell id="t-jumT_8L7kQ6bsO_YsJ-1" value="Look For Food Randomly" style="rounded=1;whiteSpace=wrap;html=1;" vertex="1" parent="1">
          <mxGeometry x="360" y="360" width="120" height="40" as="geometry" />
        </mxCell>
        <mxCell id="t-jumT_8L7kQ6bsO_YsJ-24" style="edgeStyle=orthogonalEdgeStyle;rounded=0;orthogonalLoop=1;jettySize=auto;html=1;exitX=1;exitY=0.5;exitDx=0;exitDy=0;entryX=0;entryY=0.5;entryDx=0;entryDy=0;" edge="1" parent="1" source="t-jumT_8L7kQ6bsO_YsJ-2" target="t-jumT_8L7kQ6bsO_YsJ-23">
          <mxGeometry relative="1" as="geometry" />
        </mxCell>
        <mxCell id="t-jumT_8L7kQ6bsO_YsJ-30" style="edgeStyle=orthogonalEdgeStyle;rounded=0;orthogonalLoop=1;jettySize=auto;html=1;exitX=0.5;exitY=1;exitDx=0;exitDy=0;entryX=0.5;entryY=0;entryDx=0;entryDy=0;" edge="1" parent="1" source="t-jumT_8L7kQ6bsO_YsJ-2" target="t-jumT_8L7kQ6bsO_YsJ-29">
          <mxGeometry relative="1" as="geometry" />
        </mxCell>
        <mxCell id="t-jumT_8L7kQ6bsO_YsJ-33" style="edgeStyle=orthogonalEdgeStyle;rounded=0;orthogonalLoop=1;jettySize=auto;html=1;exitX=0.75;exitY=1;exitDx=0;exitDy=0;entryX=0.25;entryY=0;entryDx=0;entryDy=0;" edge="1" parent="1" source="t-jumT_8L7kQ6bsO_YsJ-2" target="t-jumT_8L7kQ6bsO_YsJ-32">
          <mxGeometry relative="1" as="geometry" />
        </mxCell>
        <mxCell id="t-jumT_8L7kQ6bsO_YsJ-2" value="Look For Water Randomly" style="rounded=1;whiteSpace=wrap;html=1;" vertex="1" parent="1">
          <mxGeometry x="240" y="600" width="100" height="40" as="geometry" />
        </mxCell>
        <mxCell id="t-jumT_8L7kQ6bsO_YsJ-14" style="edgeStyle=orthogonalEdgeStyle;rounded=0;orthogonalLoop=1;jettySize=auto;html=1;exitX=0.25;exitY=0;exitDx=0;exitDy=0;entryX=0;entryY=0.5;entryDx=0;entryDy=0;" edge="1" parent="1" source="t-jumT_8L7kQ6bsO_YsJ-3" target="t-jumT_8L7kQ6bsO_YsJ-7">
          <mxGeometry relative="1" as="geometry" />
        </mxCell>
        <mxCell id="t-jumT_8L7kQ6bsO_YsJ-15" style="edgeStyle=orthogonalEdgeStyle;rounded=0;orthogonalLoop=1;jettySize=auto;html=1;exitX=0.5;exitY=1;exitDx=0;exitDy=0;entryX=0.5;entryY=0;entryDx=0;entryDy=0;" edge="1" parent="1" source="t-jumT_8L7kQ6bsO_YsJ-3" target="t-jumT_8L7kQ6bsO_YsJ-2">
          <mxGeometry relative="1" as="geometry" />
        </mxCell>
        <mxCell id="t-jumT_8L7kQ6bsO_YsJ-3" value="Go Home with A*" style="rounded=1;whiteSpace=wrap;html=1;" vertex="1" parent="1">
          <mxGeometry x="240" y="520" width="100" height="40" as="geometry" />
        </mxCell>
        <mxCell id="t-jumT_8L7kQ6bsO_YsJ-4" value="Death" style="rounded=1;whiteSpace=wrap;html=1;fillColor=#f8cecc;strokeColor=#b85450;" vertex="1" parent="1">
          <mxGeometry x="440" y="520" width="100" height="40" as="geometry" />
        </mxCell>
        <mxCell id="t-jumT_8L7kQ6bsO_YsJ-13" style="edgeStyle=orthogonalEdgeStyle;rounded=0;orthogonalLoop=1;jettySize=auto;html=1;exitX=0.5;exitY=1;exitDx=0;exitDy=0;entryX=0.5;entryY=0;entryDx=0;entryDy=0;" edge="1" parent="1" source="t-jumT_8L7kQ6bsO_YsJ-7" target="t-jumT_8L7kQ6bsO_YsJ-1">
          <mxGeometry relative="1" as="geometry" />
        </mxCell>
        <mxCell id="t-jumT_8L7kQ6bsO_YsJ-7" value="Spawn new Ant" style="rounded=1;whiteSpace=wrap;html=1;fillColor=#d5e8d4;strokeColor=#82b366;" vertex="1" parent="1">
          <mxGeometry x="360" y="280" width="120" height="40" as="geometry" />
        </mxCell>
        <mxCell id="t-jumT_8L7kQ6bsO_YsJ-21" style="edgeStyle=orthogonalEdgeStyle;rounded=0;orthogonalLoop=1;jettySize=auto;html=1;exitX=0.5;exitY=1;exitDx=0;exitDy=0;entryX=0.75;entryY=0;entryDx=0;entryDy=0;" edge="1" parent="1" source="t-jumT_8L7kQ6bsO_YsJ-17" target="t-jumT_8L7kQ6bsO_YsJ-3">
          <mxGeometry relative="1" as="geometry" />
        </mxCell>
        <mxCell id="t-jumT_8L7kQ6bsO_YsJ-17" value="Found Food" style="rounded=1;whiteSpace=wrap;html=1;" vertex="1" parent="1">
          <mxGeometry x="300" y="440" width="100" height="40" as="geometry" />
        </mxCell>
        <mxCell id="t-jumT_8L7kQ6bsO_YsJ-22" style="edgeStyle=orthogonalEdgeStyle;rounded=0;orthogonalLoop=1;jettySize=auto;html=1;exitX=0.5;exitY=1;exitDx=0;exitDy=0;entryX=0.5;entryY=0;entryDx=0;entryDy=0;" edge="1" parent="1" source="t-jumT_8L7kQ6bsO_YsJ-18" target="t-jumT_8L7kQ6bsO_YsJ-4">
          <mxGeometry relative="1" as="geometry" />
        </mxCell>
        <mxCell id="t-jumT_8L7kQ6bsO_YsJ-18" value="Found Poison" style="rounded=1;whiteSpace=wrap;html=1;" vertex="1" parent="1">
          <mxGeometry x="440" y="440" width="100" height="40" as="geometry" />
        </mxCell>
        <mxCell id="t-jumT_8L7kQ6bsO_YsJ-25" style="edgeStyle=orthogonalEdgeStyle;rounded=0;orthogonalLoop=1;jettySize=auto;html=1;exitX=0.5;exitY=0;exitDx=0;exitDy=0;entryX=0.5;entryY=1;entryDx=0;entryDy=0;" edge="1" parent="1" source="t-jumT_8L7kQ6bsO_YsJ-23" target="t-jumT_8L7kQ6bsO_YsJ-4">
          <mxGeometry relative="1" as="geometry" />
        </mxCell>
        <mxCell id="t-jumT_8L7kQ6bsO_YsJ-23" value="Found Poison" style="rounded=1;whiteSpace=wrap;html=1;" vertex="1" parent="1">
          <mxGeometry x="440" y="600" width="100" height="40" as="geometry" />
        </mxCell>
        <mxCell id="t-jumT_8L7kQ6bsO_YsJ-28" style="edgeStyle=orthogonalEdgeStyle;rounded=0;orthogonalLoop=1;jettySize=auto;html=1;exitX=0.75;exitY=0;exitDx=0;exitDy=0;entryX=1;entryY=0.25;entryDx=0;entryDy=0;" edge="1" parent="1" source="t-jumT_8L7kQ6bsO_YsJ-26" target="t-jumT_8L7kQ6bsO_YsJ-1">
          <mxGeometry relative="1" as="geometry" />
        </mxCell>
        <mxCell id="t-jumT_8L7kQ6bsO_YsJ-26" value="Found Wall" style="rounded=1;whiteSpace=wrap;html=1;" vertex="1" parent="1">
          <mxGeometry x="560" y="440" width="100" height="40" as="geometry" />
        </mxCell>
        <mxCell id="t-jumT_8L7kQ6bsO_YsJ-31" style="edgeStyle=orthogonalEdgeStyle;rounded=0;orthogonalLoop=1;jettySize=auto;html=1;exitX=0;exitY=0.5;exitDx=0;exitDy=0;entryX=0;entryY=0.5;entryDx=0;entryDy=0;" edge="1" parent="1" source="t-jumT_8L7kQ6bsO_YsJ-29" target="t-jumT_8L7kQ6bsO_YsJ-7">
          <mxGeometry relative="1" as="geometry" />
        </mxCell>
        <mxCell id="t-jumT_8L7kQ6bsO_YsJ-29" value="Found Water" style="rounded=1;whiteSpace=wrap;html=1;" vertex="1" parent="1">
          <mxGeometry x="240" y="680" width="100" height="40" as="geometry" />
        </mxCell>
        <mxCell id="t-jumT_8L7kQ6bsO_YsJ-34" style="edgeStyle=orthogonalEdgeStyle;rounded=0;orthogonalLoop=1;jettySize=auto;html=1;exitX=0.5;exitY=0;exitDx=0;exitDy=0;entryX=1;entryY=0.75;entryDx=0;entryDy=0;" edge="1" parent="1" source="t-jumT_8L7kQ6bsO_YsJ-32" target="t-jumT_8L7kQ6bsO_YsJ-2">
          <mxGeometry relative="1" as="geometry" />
        </mxCell>
        <mxCell id="t-jumT_8L7kQ6bsO_YsJ-32" value="Found Wall" style="rounded=1;whiteSpace=wrap;html=1;" vertex="1" parent="1">
          <mxGeometry x="360" y="680" width="100" height="40" as="geometry" />
        </mxCell>
      </root>
    </mxGraphModel>
  </diagram>
</mxfile>
